<?xml version="1.0" encoding="utf-8"?>
<svg viewBox="-111.907 10.78 622.062 131.964" xmlns="http://www.w3.org/2000/svg">
  <path 
    d="M -82.22 65.754 L -82.22 67.929 Q -77.474 61.667 -71.838 58.733 Q -66.202 55.8 -58.885 55.8 Q -51.766 55.8 -46.163 58.898 Q -40.56 61.996 -37.791 67.665 Q -36.011 70.961 -35.484 74.784 Q -34.957 78.608 -34.957 84.54 L -34.957 118.027 Q -34.957 123.432 -37.429 126.2 Q -39.901 128.969 -43.856 128.969 Q -47.877 128.969 -50.382 126.134 Q -52.886 123.3 -52.886 118.027 L -52.886 88.034 Q -52.886 79.135 -55.358 74.422 Q -57.83 69.709 -65.213 69.709 Q -70.025 69.709 -73.98 72.576 Q -77.935 75.444 -79.781 80.453 Q -81.099 84.474 -81.099 95.483 L -81.099 118.027 Q -81.099 123.498 -83.637 126.233 Q -86.175 128.969 -90.196 128.969 Q -94.085 128.969 -96.59 126.134 Q -99.095 123.3 -99.095 118.027 L -99.095 66.017 Q -99.095 60.876 -96.854 58.338 Q -94.612 55.8 -90.723 55.8 Q -88.35 55.8 -86.439 56.921 Q -84.527 58.041 -83.373 60.282 Q -82.22 62.524 -82.22 65.754 Z M 42.006 79.926 Q 42.006 90.737 40.688 98.515 Q 39.369 106.293 35.81 112.621 Q 31.327 120.4 24.208 124.618 Q 17.089 128.837 8.388 128.837 Q -1.632 128.837 -9.575 123.168 Q -17.518 117.499 -21.539 107.48 Q -23.582 102.008 -24.538 95.384 Q -25.494 88.759 -25.494 81.047 Q -25.494 71.093 -24.439 63.117 Q -23.385 55.141 -21.143 49.406 Q -17.254 39.914 -9.838 34.937 Q -2.423 29.96 7.861 29.96 Q 14.65 29.96 20.187 32.168 Q 25.724 34.377 29.91 38.628 Q 34.096 42.88 36.996 49.142 Q 42.006 60.019 42.006 79.926 Z M 23.945 78.608 Q 23.945 66.545 22.494 58.865 Q 21.044 51.186 17.616 47.264 Q 14.189 43.342 8.124 43.342 Q -0.577 43.342 -3.972 52.109 Q -7.366 60.876 -7.366 79.135 Q -7.366 91.528 -5.916 99.438 Q -4.466 107.348 -1.038 111.402 Q 2.389 115.456 8.256 115.456 Q 14.321 115.456 17.748 111.237 Q 21.176 107.018 22.56 99.174 Q 23.945 91.33 23.945 78.608 Z M 79.856 68.984 Q 85.92 68.984 90.304 65.424 Q 94.687 61.864 94.687 55.207 Q 94.687 50.131 91.194 46.473 Q 87.7 42.814 81.767 42.814 Q 77.746 42.814 75.143 43.935 Q 72.539 45.055 71.023 46.901 Q 69.507 48.747 68.155 51.647 Q 66.804 54.548 65.683 57.118 Q 65.024 58.503 63.31 59.294 Q 61.596 60.085 59.355 60.085 Q 56.718 60.085 54.51 57.942 Q 52.302 55.8 52.302 52.24 Q 52.302 48.813 54.378 45.022 Q 56.455 41.232 60.443 37.804 Q 64.431 34.377 70.363 32.3 Q 76.296 30.224 83.613 30.224 Q 90.007 30.224 95.28 31.971 Q 100.554 33.717 104.443 37.013 Q 108.332 40.309 110.31 44.66 Q 112.287 49.01 112.287 54.02 Q 112.287 60.612 109.42 65.325 Q 106.552 70.038 101.213 74.521 Q 106.355 77.289 109.881 80.849 Q 113.408 84.408 115.188 88.726 Q 116.967 93.044 116.967 98.053 Q 116.967 104.052 114.561 109.655 Q 112.155 115.258 107.475 119.642 Q 102.795 124.025 96.368 126.497 Q 89.941 128.969 82.163 128.969 Q 74.253 128.969 67.99 126.134 Q 61.728 123.3 57.674 119.048 Q 53.62 114.797 51.544 110.248 Q 49.467 105.7 49.467 102.734 Q 49.467 98.91 51.939 96.57 Q 54.411 94.23 58.103 94.23 Q 59.948 94.23 61.662 95.318 Q 63.376 96.405 63.904 97.922 Q 67.331 107.084 71.253 111.534 Q 75.175 115.983 82.295 115.983 Q 86.382 115.983 90.172 113.973 Q 93.962 111.962 96.434 108.007 Q 98.906 104.052 98.906 98.844 Q 98.906 91.132 94.687 86.748 Q 90.468 82.365 82.954 82.365 Q 81.635 82.365 78.867 82.629 Q 76.098 82.892 75.307 82.892 Q 71.682 82.892 69.704 81.08 Q 67.727 79.267 67.727 76.037 Q 67.727 72.873 70.1 70.928 Q 72.473 68.984 77.153 68.984 Z M 172.394 118.818 Q 165.868 123.893 159.771 126.431 Q 153.673 128.969 146.093 128.969 Q 139.171 128.969 133.931 126.233 Q 128.69 123.498 125.856 118.818 Q 123.021 114.137 123.021 108.666 Q 123.021 101.283 127.701 96.076 Q 132.382 90.868 140.555 89.089 Q 142.269 88.693 149.059 87.309 Q 155.848 85.925 160.693 84.771 Q 165.538 83.617 171.207 81.969 Q 170.878 74.85 168.34 71.521 Q 165.802 68.193 157.826 68.193 Q 150.97 68.193 147.51 70.104 Q 144.049 72.016 141.577 75.839 Q 139.105 79.662 138.084 80.882 Q 137.062 82.101 133.7 82.101 Q 130.668 82.101 128.459 80.157 Q 126.251 78.212 126.251 75.18 Q 126.251 70.434 129.613 65.951 Q 132.975 61.469 140.094 58.569 Q 147.213 55.668 157.826 55.668 Q 169.691 55.668 176.481 58.47 Q 183.27 61.271 186.072 67.336 Q 188.873 73.4 188.873 83.42 Q 188.873 89.748 188.84 94.164 Q 188.807 98.581 188.741 103.986 Q 188.741 109.062 190.422 114.566 Q 192.103 120.07 192.103 121.652 Q 192.103 124.421 189.5 126.695 Q 186.896 128.969 183.6 128.969 Q 180.831 128.969 178.129 126.365 Q 175.426 123.761 172.394 118.818 Z M 171.207 92.78 Q 167.252 94.23 159.705 95.845 Q 152.157 97.46 149.257 98.218 Q 146.356 98.976 143.72 101.185 Q 141.083 103.393 141.083 107.348 Q 141.083 111.435 144.181 114.302 Q 147.279 117.17 152.289 117.17 Q 157.628 117.17 162.144 114.83 Q 166.659 112.489 168.768 108.798 Q 171.207 104.711 171.207 95.351 Z M 217.956 65.754 L 217.956 67.929 Q 222.702 61.667 228.338 58.733 Q 233.974 55.8 241.291 55.8 Q 248.41 55.8 254.013 58.898 Q 259.616 61.996 262.385 67.665 Q 264.164 70.961 264.692 74.784 Q 265.219 78.608 265.219 84.54 L 265.219 118.027 Q 265.219 123.432 262.747 126.2 Q 260.275 128.969 256.32 128.969 Q 252.299 128.969 249.794 126.134 Q 247.289 123.3 247.289 118.027 L 247.289 88.034 Q 247.289 79.135 244.817 74.422 Q 242.345 69.709 234.963 69.709 Q 230.151 69.709 226.196 72.576 Q 222.24 75.444 220.395 80.453 Q 219.076 84.474 219.076 95.483 L 219.076 118.027 Q 219.076 123.498 216.539 126.233 Q 214.001 128.969 209.98 128.969 Q 206.091 128.969 203.586 126.134 Q 201.081 123.3 201.081 118.027 L 201.081 66.017 Q 201.081 60.876 203.322 58.338 Q 205.563 55.8 209.452 55.8 Q 211.825 55.8 213.737 56.921 Q 215.649 58.041 216.802 60.282 Q 217.956 62.524 217.956 65.754 Z M 289.579 128.969 Q 285.492 128.969 282.526 126.332 Q 279.56 123.696 279.56 118.949 Q 279.56 114.928 282.394 112.028 Q 285.229 109.128 289.382 109.128 Q 293.534 109.128 296.468 111.995 Q 299.401 114.863 299.401 118.949 Q 299.401 123.63 296.468 126.299 Q 293.534 128.969 289.579 128.969 Z M 374.254 93.703 L 374.254 117.631 Q 374.254 123.3 371.683 126.134 Q 369.112 128.969 364.894 128.969 Q 360.807 128.969 358.269 126.134 Q 355.731 123.3 355.731 117.631 L 355.731 88.957 Q 355.731 82.167 355.27 78.41 Q 354.808 74.653 352.765 72.247 Q 350.721 69.841 346.305 69.841 Q 337.472 69.841 334.67 75.905 Q 331.869 81.969 331.869 93.307 L 331.869 117.631 Q 331.869 123.234 329.331 126.102 Q 326.793 128.969 322.64 128.969 Q 318.553 128.969 315.949 126.102 Q 313.346 123.234 313.346 117.631 L 313.346 66.149 Q 313.346 61.073 315.686 58.437 Q 318.026 55.8 321.849 55.8 Q 325.541 55.8 328.012 58.272 Q 330.484 60.744 330.484 65.094 L 330.484 66.808 Q 335.165 61.205 340.504 58.569 Q 345.843 55.932 352.369 55.932 Q 359.159 55.932 364.037 58.634 Q 368.915 61.337 372.079 66.808 Q 376.627 61.271 381.834 58.602 Q 387.042 55.932 393.37 55.932 Q 400.753 55.932 406.092 58.832 Q 411.432 61.733 414.068 67.138 Q 416.375 72.016 416.375 82.497 L 416.375 117.631 Q 416.375 123.3 413.805 126.134 Q 411.234 128.969 407.015 128.969 Q 402.928 128.969 400.324 126.102 Q 397.721 123.234 397.721 117.631 L 397.721 87.375 Q 397.721 81.574 397.226 78.08 Q 396.732 74.587 394.557 72.214 Q 392.381 69.841 387.965 69.841 Q 384.405 69.841 381.208 71.95 Q 378.011 74.059 376.231 77.619 Q 374.254 82.167 374.254 93.703 Z M 478.573 96.801 L 443.372 96.801 Q 443.438 102.931 445.844 107.612 Q 448.25 112.292 452.238 114.665 Q 456.226 117.038 461.038 117.038 Q 464.268 117.038 466.938 116.28 Q 469.608 115.522 472.113 113.907 Q 474.618 112.292 476.727 110.446 Q 478.836 108.6 482.198 105.436 Q 483.582 104.25 486.153 104.25 Q 488.922 104.25 490.636 105.766 Q 492.35 107.282 492.35 110.05 Q 492.35 112.489 490.438 115.752 Q 488.526 119.015 484.67 122.015 Q 480.814 125.014 474.98 126.991 Q 469.146 128.969 461.566 128.969 Q 444.229 128.969 434.605 119.081 Q 424.981 109.194 424.981 92.253 Q 424.981 84.277 427.354 77.454 Q 429.727 70.632 434.276 65.754 Q 438.824 60.876 445.482 58.272 Q 452.14 55.668 460.247 55.668 Q 470.794 55.668 478.342 60.118 Q 485.89 64.567 489.647 71.62 Q 493.404 78.674 493.404 85.99 Q 493.404 92.78 489.515 94.79 Q 485.626 96.801 478.573 96.801 Z M 443.372 86.584 L 476.002 86.584 Q 475.343 77.355 471.025 72.774 Q 466.707 68.193 459.654 68.193 Q 452.931 68.193 448.613 72.84 Q 444.295 77.487 443.372 86.584 Z"
    fill="black"
    fill-opacity="0.8"
  />
</svg>